<?xml version="1.0" standalone="no"?>
<!DOCTYPE svg PUBLIC "-//W3C//DTD SVG 20010904//EN"
 "http://www.w3.org/TR/2001/REC-SVG-20010904/DTD/svg10.dtd">
<svg version="1.0" xmlns="http://www.w3.org/2000/svg"
 width="512.000000pt" height="512.000000pt" viewBox="0 0 512.000000 512.000000"
 preserveAspectRatio="xMidYMid meet">
<metadata>
Created by potrace 1.14, written by Peter Selinger 2001-2017
</metadata>
<g transform="translate(0.000000,512.000000) scale(0.100000,-0.100000)"
fill="#000000" stroke="none">
<path d="M223 5102 c-97 -34 -159 -94 -199 -190 l-24 -57 3 -2305 2 -2305 26
-55 c33 -70 89 -126 159 -159 l55 -26 2315 0 2315 0 55 26 c70 33 126 89 159
159 l26 55 0 2315 0 2315 -26 55 c-33 70 -89 126 -159 159 l-55 26 -2300 2
c-2190 2 -2302 2 -2352 -15z"/>
</g>
</svg>
